<svg width="38" height="52" viewBox="0 0 38 52" fill="none" xmlns="http://www.w3.org/2000/svg">
<path d="M19 52C19 52 0.799988 28.262 0.799988 18.2C0.799988 15.8099 1.27075 13.4433 2.18538 11.2352C3.10002 9.02704 4.44062 7.02068 6.13065 5.33066C7.82067 3.64063 9.82703 2.30003 12.0352 1.38539C14.2433 0.470757 16.6099 0 19 0C21.3901 0 23.7567 0.470757 25.9648 1.38539C28.173 2.30003 30.1793 3.64063 31.8693 5.33066C33.5594 7.02068 34.9 9.02704 35.8146 11.2352C36.7292 13.4433 37.2 15.8099 37.2 18.2C37.2 28.262 19 52 19 52ZM19 23.4C20.3791 23.4 21.7018 22.8521 22.6769 21.877C23.6521 20.9018 24.2 19.5791 24.2 18.2C24.2 16.8209 23.6521 15.4982 22.6769 14.523C21.7018 13.5479 20.3791 13 19 13C17.6209 13 16.2982 13.5479 15.323 14.523C14.3478 15.4982 13.8 16.8209 13.8 18.2C13.8 19.5791 14.3478 20.9018 15.323 21.877C16.2982 22.8521 17.6209 23.4 19 23.4Z" fill="black"/>
</svg>
