<svg width="163" height="266" viewBox="0 0 163 266" fill="none" xmlns="http://www.w3.org/2000/svg">
<ellipse opacity="0.5" cx="101.995" cy="261.56" rx="58.9771" ry="3.21275" transform="rotate(0.337468 101.995 261.56)" fill="#FEC091"/>
<path d="M85.1016 159.51L90.594 132.769L138.29 181.769L123.306 200.967L90.898 175.388C86.1197 171.617 83.8769 165.473 85.1016 159.51Z" fill="#27A2A1"/>
<path d="M101.807 119.709L93.8289 152.121C92.262 158.486 94.7109 165.166 100.021 169.01L129.358 190.251" stroke="white" stroke-width="5.36686"/>
<path fill-rule="evenodd" clip-rule="evenodd" d="M20.1851 195.005C18.394 197.493 21.5287 200.923 21.0637 203.959C20.7798 205.814 18.6991 206.795 18.107 208.573C16.93 212.108 13.4351 216.525 15.9659 219.271C18.3713 221.881 22.6368 217.881 26.1198 217.268C28.4194 216.863 30.6382 216.93 32.8837 216.292C35.9939 215.409 40.1633 215.696 41.6939 212.844C43.204 210.032 40.9025 206.647 39.6425 203.703C38.5931 201.251 37.1155 199.088 35.0731 197.375C33.0702 195.695 30.7505 194.493 28.1742 194.083C25.4575 193.65 21.7906 192.775 20.1851 195.005Z" fill="#FF992D"/>
<path d="M36.717 150.49L44.3403 109.154C45.9412 100.473 54.2512 94.7138 62.9416 96.2626V96.2626C71.7061 97.8245 77.5252 106.221 75.9105 114.976L68.3223 156.122" stroke="#25223A" stroke-width="10.7337" stroke-linecap="round"/>
<path fill-rule="evenodd" clip-rule="evenodd" d="M21.3059 197.656C19.8979 199.612 22.3621 202.309 21.9966 204.695C21.7733 206.153 20.1377 206.924 19.6723 208.322C18.7471 211.101 15.9997 214.573 17.9892 216.731C19.8801 218.783 23.2331 215.639 25.9711 215.157C27.7788 214.839 29.523 214.891 31.2882 214.39C33.7331 213.695 37.0106 213.921 38.2138 211.68C39.4008 209.468 37.5917 206.808 36.6011 204.493C35.7763 202.566 34.6148 200.866 33.0092 199.519C31.4348 198.198 29.6113 197.254 27.5861 196.931C25.4505 196.591 22.5679 195.903 21.3059 197.656Z" fill="#E87F0F"/>
<rect width="53.603" height="76.8185" rx="16.1006" transform="matrix(-0.984489 -0.175447 -0.175447 0.984489 79.0557 156.202)" fill="#E87F0F"/>
<path d="M80.4989 162.948L76.2633 157.369L73.0525 167.194L80.4989 162.948Z" fill="#E87F0F"/>
<path d="M19.2313 226.115L14.9958 220.537L19.8809 217.473L19.2313 226.115Z" fill="#E87F0F"/>
<rect width="53.603" height="76.8185" rx="16.1006" transform="matrix(-0.984489 -0.175447 -0.175447 0.984489 82.8214 161.316)" fill="#FF992D"/>
<path opacity="0.5" d="M72.0311 220.898L78.9556 181.342C68.5144 223.911 49.1505 232.41 38.9673 231.356L36.846 230.97C37.4968 231.145 38.2064 231.277 38.9673 231.356L53.2895 233.962C62.0793 235.561 70.4906 229.698 72.0311 220.898Z" fill="#E87F0F"/>
<rect width="4.58618" height="60.3847" rx="2.29309" transform="matrix(-0.984489 -0.175447 -0.175447 0.984489 71.4679 167.833)" fill="#E87F0F"/>
<rect width="4.58618" height="60.3847" rx="2.29309" transform="matrix(-0.984489 -0.175447 -0.175447 0.984489 56.4176 165.151)" fill="#E87F0F"/>
<rect width="4.58618" height="60.3847" rx="2.29309" transform="matrix(-0.984489 -0.175447 -0.175447 0.984489 41.3674 162.469)" fill="#E87F0F"/>
<path d="M132.102 154.059L131.848 156.526L130.072 157.777L132.193 158.245L133.381 160.423L133.635 157.955L135.41 156.704L133.289 156.236L132.102 154.059Z" fill="#FEC091"/>
<path d="M81.5286 209.458L81.2746 211.926L79.4994 213.177L81.6201 213.644L82.8077 215.822L83.0617 213.355L84.8369 212.104L82.7162 211.636L81.5286 209.458Z" fill="#FEC091"/>
<path d="M83.4025 77.8743L81.4877 80.3262L78.7679 80.4716L80.7088 82.3825L80.5187 85.4876L82.4335 83.0357L85.1533 82.8903L83.2124 80.9795L83.4025 77.8743Z" fill="#FEC091"/>
<path d="M76.6496 7.87429L76.5966 10.026L75.1455 11.2281L77.0116 11.4895L78.1862 13.2931L78.2391 11.1415L79.6903 9.93933L77.8241 9.67788L76.6496 7.87429Z" fill="#FEC091"/>
<path d="M21.7892 139.63L21.6562 142.738L19.5275 144.437L22.2175 144.864L23.8676 147.501L24.0006 144.393L26.1293 142.694L23.4393 142.267L21.7892 139.63Z" fill="#FEC091"/>
<path d="M137.668 57.0406L137.771 58.7819L136.681 59.8512L138.206 59.9358L139.277 61.3126L139.174 59.5714L140.264 58.502L138.739 58.4175L137.668 57.0406Z" fill="#FEC091"/>
<circle cx="2.29309" cy="2.29309" r="2.29309" transform="matrix(-0.984489 -0.175447 -0.175447 0.984489 56.6391 235.455)" fill="#25223A"/>
<circle cx="2.29309" cy="2.29309" r="2.29309" transform="matrix(-0.984489 -0.175447 -0.175447 0.984489 30.3013 230.762)" fill="#25223A"/>
<path d="M65.563 157.342L42.2353 153.185C41.5946 156.78 43.9897 160.214 47.5848 160.854L57.8933 162.691C61.4885 163.332 64.9223 160.937 65.563 157.342Z" fill="#E87F0F"/>
<path d="M65.5628 157.342L42.1499 153.134C41.7132 155.878 43.5544 158.466 46.2898 158.954L59.7998 161.361C62.5012 161.843 65.0814 160.043 65.5628 157.342Z" fill="white"/>
<path d="M64.2137 153.355L65.6458 157.569L42.1651 153.251L41.9084 149.499L64.2137 153.355Z" fill="#FEC091"/>
<path d="M77.3538 94.4436L78.1638 95.0068L78.1927 99.9088L72.7154 100.634C70.5534 100.92 68.357 100.493 66.46 99.4166L65.4122 98.8223C64.5015 98.3057 63.9363 97.3419 63.9301 96.2949C63.9221 94.9368 64.8499 93.7518 66.1703 93.4337L68.7122 92.8213C71.6922 92.1033 74.837 92.6937 77.3538 94.4436Z" fill="#E87F0F"/>
<path d="M70.1086 98.6014L71.9327 93.7963C72.2385 92.9906 71.5181 92.1712 70.6799 92.3713L65.8608 93.522C64.697 93.7999 63.8372 94.7848 63.7189 95.9755C63.6061 97.1114 64.1923 98.2025 65.2016 98.7356L67.099 99.7378C68.2399 100.34 69.6507 99.8076 70.1086 98.6014Z" fill="#E87F0F"/>
<path d="M84.2515 121.906L94.6354 65.7358L89.5586 129.845C85.9307 129.074 83.5773 125.553 84.2515 121.906Z" fill="white"/>
<path d="M113.412 234.93L113.342 223.088C106.517 224.918 101.818 223.901 100.322 223.164L100.354 228.673L90.8223 253.234C90.5922 253.827 90.476 254.458 90.4797 255.094L90.4843 255.869C90.4862 256.197 90.5697 256.52 90.7271 256.809C91.3402 257.931 92.8394 258.19 93.793 257.337L109.833 242.995C112.126 240.944 113.43 238.007 113.412 234.93Z" fill="#25223A"/>
<path d="M113.341 222.884L113.276 211.899L100.256 211.975L100.32 222.961C104.564 225.052 110.769 223.781 113.341 222.884Z" fill="#E87F0F"/>
<path d="M100.267 219.334L113.421 219.257L113.308 223.226C107.342 225.129 102.085 223.993 100.291 223.303L100.267 219.334Z" fill="white"/>
<path d="M148.026 197.305L139.841 189.977L131.156 199.677L139.34 207.005C143.739 205.264 146.964 199.813 148.026 197.305Z" fill="#E87F0F"/>
<path d="M152.433 201.163L148.006 197.19C144.773 203.474 140.862 206.269 139.31 206.881L130.267 233.67C129.953 234.6 130.223 235.628 130.954 236.284C131.256 236.556 131.622 236.748 132.017 236.843L132.281 236.907C133.546 237.213 134.876 236.8 135.745 235.832L153.253 216.321C157.213 211.909 156.845 205.122 152.433 201.163Z" fill="#25223A"/>
<path d="M139.364 207.196C142.907 206.241 146.56 200.149 147.944 197.339L145.361 194.786L137.017 205.109L139.364 207.196Z" fill="white"/>
<rect width="24.5302" height="7.99773" rx="2.14675" transform="matrix(-0.640873 0.767647 0.767647 0.640873 137.154 180.443)" fill="#3D696B" fill-opacity="0.5"/>
<rect width="27.2614" height="7.32396" rx="2.14675" transform="matrix(-0.640873 0.767647 0.767647 0.640873 138.609 180.047)" fill="#27A2A1"/>
<path d="M119.745 204.943L123.611 135.952L90.4302 132.688L93.2981 205.099L119.745 204.943Z" fill="#2AB0AF"/>
<path d="M105.35 204.034L105.639 131.198L103.88 131.208L103.627 204.044L105.35 204.034Z" fill="white"/>
<path d="M123.301 136.079L90.5941 132.769L90.634 139.54L123.331 141.215L123.301 136.079Z" fill="#3D696B" fill-opacity="0.5"/>
<path d="M127.398 124.384C124.598 93.5177 118.656 71.7815 112.109 61.4299C110.602 59.0482 107.455 59.2067 104.712 59.8551C103.964 60.032 103.244 60.0796 102.557 60.0188L102.5 60.0138C100.093 59.8006 97.4177 59.5636 96.285 61.6938C90.5644 72.4526 89.2587 102.006 88.4222 123.673C88.1944 129.574 92.762 134.567 98.6596 134.86L116.331 135.737C122.715 136.054 127.975 130.75 127.398 124.384Z" fill="#FF5B59"/>
<path d="M127.171 123.801L124.739 102.682C127.191 139.085 113.586 133.366 106.679 135.034L115.68 135.731C122.409 136.251 127.944 130.506 127.171 123.801Z" fill="#FF2E2C"/>
<path d="M121.54 91.687C120.121 80.4482 115.866 68.1613 111.845 61.1654C110.656 59.0972 107.146 59.0527 104.888 59.8215C102.557 60.6151 101.988 62.6472 102.479 65.0603L105.86 81.6818C107.247 88.4993 101.881 94.8145 94.929 94.5471L79.9033 93.9691C78.9518 93.9325 78.162 94.697 78.1676 95.6492C78.192 99.789 81.2434 103.287 85.3417 103.873L103.333 106.446C113.376 107.883 122.812 101.753 121.54 91.687Z" fill="#FF2E2C"/>
<rect width="26.6165" height="2.33478" rx="1.16739" transform="matrix(-0.999983 0.0058899 0.0058899 0.999983 119.963 203.575)" fill="#3D696B" fill-opacity="0.5"/>
<rect width="27.2614" height="7.32396" rx="2.14675" transform="matrix(-0.999983 0.0058899 0.0058899 0.999983 120.15 204.534)" fill="#2AB0AF"/>
<path fill-rule="evenodd" clip-rule="evenodd" d="M96.2956 12.5233C92.1987 13.5359 90.3248 18.2598 86.704 20.4407C82.8625 22.7546 76.0407 21.3339 74.5867 25.5995C73.0784 30.0244 78.9025 33.576 80.7659 37.8617C82.0306 40.7707 82.4791 43.7935 83.7588 46.6958C85.5859 50.8391 85.6248 57.0175 89.8721 58.5129C94.0415 59.9809 97.2367 52.645 101.64 52.9915C110.513 53.6896 118.201 64.7894 126.436 61.39C133.214 58.5925 133.113 47.745 132.04 40.4433C131.058 33.7625 125.4 29.0867 120.949 24.038C117.628 20.2713 113.983 16.938 109.447 14.8192C105.327 12.8949 100.706 11.4332 96.2956 12.5233Z" fill="#25223A"/>
<circle cx="9.38359" cy="9.38359" r="9.38359" transform="matrix(-0.999983 0.0058899 0.0058899 0.999983 113.152 38.2054)" fill="#F68853"/>
<path d="M111.094 41.7682C114.41 45.0457 114.674 55.5438 104.336 57.0249C107.37 55.4853 112.414 50.6369 111.094 41.7682Z" fill="#C86709"/>
</svg>
