<svg width="44" height="44" viewBox="0 0 44 44" fill="none" xmlns="http://www.w3.org/2000/svg">
<path d="M29.0362 30.9051L32.6762 27.2651C33.1665 26.7809 33.7868 26.4494 34.4618 26.311C35.1368 26.1725 35.8374 26.233 36.4787 26.4851L40.915 28.2563C41.563 28.5194 42.1187 28.9684 42.512 29.5467C42.9053 30.1251 43.1186 30.8069 43.125 31.5063V39.6313C43.1212 40.1071 43.0212 40.5772 42.831 41.0133C42.6407 41.4494 42.3642 41.8424 42.0181 42.1689C41.6719 42.4953 41.2633 42.7483 40.8168 42.9126C40.3703 43.0769 39.8951 43.1492 39.42 43.1251C8.33372 41.1913 2.06122 14.8663 0.874973 4.79132C0.819907 4.29656 0.87022 3.79576 1.0226 3.32184C1.17498 2.84793 1.42598 2.41165 1.75908 2.04171C2.09218 1.67177 2.49984 1.37655 2.95523 1.17547C3.41062 0.974391 3.90342 0.872011 4.40122 0.875066H12.25C12.9504 0.87714 13.6341 1.0887 14.2133 1.48254C14.7925 1.87638 15.2406 2.43448 15.5 3.08507L17.2712 7.52132C17.5316 8.16005 17.5981 8.86136 17.4622 9.53764C17.3264 10.2139 16.9943 10.8352 16.5075 11.3238L12.8675 14.9638C12.8675 14.9638 14.9637 29.1501 29.0362 30.9051Z" fill="black"/>
</svg>
