<svg width="338" height="68" viewBox="0 0 338 68" fill="none" xmlns="http://www.w3.org/2000/svg">
<rect width="338" height="68" rx="10" fill="#F1F12E"/>
<path d="M25.7699 44V23.6364H33.9233C35.4214 23.6364 36.6709 23.8584 37.6719 24.3026C38.6728 24.7467 39.4252 25.3632 39.929 26.152C40.4328 26.9342 40.6847 27.8357 40.6847 28.8565C40.6847 29.652 40.5256 30.3513 40.2074 30.9545C39.8892 31.5511 39.4517 32.0417 38.8949 32.4261C38.3447 32.804 37.715 33.0724 37.0057 33.2315V33.4304C37.7813 33.4635 38.5071 33.6823 39.1832 34.0866C39.866 34.491 40.4195 35.0578 40.8438 35.7869C41.268 36.5095 41.4801 37.3712 41.4801 38.3722C41.4801 39.4527 41.2116 40.4171 40.6747 41.2656C40.1444 42.1075 39.3589 42.7737 38.3182 43.2642C37.2775 43.7547 35.9948 44 34.4702 44H25.7699ZM30.0753 40.4801H33.5852C34.785 40.4801 35.66 40.2514 36.2102 39.794C36.7604 39.33 37.0355 38.7135 37.0355 37.9446C37.0355 37.3812 36.8996 36.884 36.6278 36.4531C36.3561 36.0223 35.9683 35.6842 35.4645 35.4389C34.9673 35.1937 34.3741 35.071 33.6847 35.071H30.0753V40.4801ZM30.0753 32.1577H33.267C33.857 32.1577 34.3807 32.0549 34.8381 31.8494C35.3021 31.6373 35.6667 31.339 35.9318 30.9545C36.2036 30.5701 36.3395 30.1094 36.3395 29.5724C36.3395 28.8366 36.0777 28.2434 35.554 27.7926C35.0369 27.3419 34.3011 27.1165 33.3466 27.1165H30.0753V32.1577ZM51.1026 44.2983C49.5581 44.2983 48.2224 43.9702 47.0955 43.3139C45.9753 42.651 45.1102 41.7296 44.5004 40.5497C43.8905 39.3632 43.5856 37.9877 43.5856 36.4233C43.5856 34.8456 43.8905 33.4669 44.5004 32.2869C45.1102 31.1004 45.9753 30.179 47.0955 29.5227C48.2224 28.8598 49.5581 28.5284 51.1026 28.5284C52.6471 28.5284 53.9795 28.8598 55.0998 29.5227C56.2267 30.179 57.0951 31.1004 57.7049 32.2869C58.3147 33.4669 58.6197 34.8456 58.6197 36.4233C58.6197 37.9877 58.3147 39.3632 57.7049 40.5497C57.0951 41.7296 56.2267 42.651 55.0998 43.3139C53.9795 43.9702 52.6471 44.2983 51.1026 44.2983ZM51.1225 41.017C51.8252 41.017 52.4118 40.8182 52.8825 40.4205C53.3531 40.0161 53.7077 39.4659 53.9464 38.7699C54.1916 38.0739 54.3143 37.2817 54.3143 36.3935C54.3143 35.5052 54.1916 34.7131 53.9464 34.017C53.7077 33.321 53.3531 32.7708 52.8825 32.3665C52.4118 31.9621 51.8252 31.7599 51.1225 31.7599C50.4132 31.7599 49.8166 31.9621 49.3327 32.3665C48.8555 32.7708 48.4942 33.321 48.2489 34.017C48.0103 34.7131 47.891 35.5052 47.891 36.3935C47.891 37.2817 48.0103 38.0739 48.2489 38.7699C48.4942 39.4659 48.8555 40.0161 49.3327 40.4205C49.8166 40.8182 50.4132 41.017 51.1225 41.017ZM68.2745 44.2983C66.73 44.2983 65.3943 43.9702 64.2674 43.3139C63.1471 42.651 62.2821 41.7296 61.6722 40.5497C61.0624 39.3632 60.7575 37.9877 60.7575 36.4233C60.7575 34.8456 61.0624 33.4669 61.6722 32.2869C62.2821 31.1004 63.1471 30.179 64.2674 29.5227C65.3943 28.8598 66.73 28.5284 68.2745 28.5284C69.819 28.5284 71.1514 28.8598 72.2717 29.5227C73.3986 30.179 74.2669 31.1004 74.8768 32.2869C75.4866 33.4669 75.7915 34.8456 75.7915 36.4233C75.7915 37.9877 75.4866 39.3632 74.8768 40.5497C74.2669 41.7296 73.3986 42.651 72.2717 43.3139C71.1514 43.9702 69.819 44.2983 68.2745 44.2983ZM68.2944 41.017C68.997 41.017 69.5837 40.8182 70.0543 40.4205C70.525 40.0161 70.8796 39.4659 71.1183 38.7699C71.3635 38.0739 71.4862 37.2817 71.4862 36.3935C71.4862 35.5052 71.3635 34.7131 71.1183 34.017C70.8796 33.321 70.525 32.7708 70.0543 32.3665C69.5837 31.9621 68.997 31.7599 68.2944 31.7599C67.5851 31.7599 66.9885 31.9621 66.5046 32.3665C66.0273 32.7708 65.6661 33.321 65.4208 34.017C65.1822 34.7131 65.0629 35.5052 65.0629 36.3935C65.0629 37.2817 65.1822 38.0739 65.4208 38.7699C65.6661 39.4659 66.0273 40.0161 66.5046 40.4205C66.9885 40.8182 67.5851 41.017 68.2944 41.017ZM82.3839 39.6051L82.3938 34.5241H83.0103L87.9023 28.7273H92.7646L86.1921 36.4034H85.1879L82.3839 39.6051ZM78.5458 44V23.6364H82.7816V44H78.5458ZM88.0913 44L83.5969 37.348L86.4208 34.3551L93.0529 44H88.0913ZM100.21 23.6364H105.032L109.675 32.4062H109.874L114.518 23.6364H119.34L111.913 36.8011V44H107.637V36.8011L100.21 23.6364ZM125.314 44.2983C123.769 44.2983 122.433 43.9702 121.306 43.3139C120.186 42.651 119.321 41.7296 118.711 40.5497C118.101 39.3632 117.797 37.9877 117.797 36.4233C117.797 34.8456 118.101 33.4669 118.711 32.2869C119.321 31.1004 120.186 30.179 121.306 29.5227C122.433 28.8598 123.769 28.5284 125.314 28.5284C126.858 28.5284 128.19 28.8598 129.311 29.5227C130.438 30.179 131.306 31.1004 131.916 32.2869C132.526 33.4669 132.831 34.8456 132.831 36.4233C132.831 37.9877 132.526 39.3632 131.916 40.5497C131.306 41.7296 130.438 42.651 129.311 43.3139C128.19 43.9702 126.858 44.2983 125.314 44.2983ZM125.333 41.017C126.036 41.017 126.623 40.8182 127.093 40.4205C127.564 40.0161 127.919 39.4659 128.157 38.7699C128.403 38.0739 128.525 37.2817 128.525 36.3935C128.525 35.5052 128.403 34.7131 128.157 34.017C127.919 33.321 127.564 32.7708 127.093 32.3665C126.623 31.9621 126.036 31.7599 125.333 31.7599C124.624 31.7599 124.028 31.9621 123.544 32.3665C123.066 32.7708 122.705 33.321 122.46 34.017C122.221 34.7131 122.102 35.5052 122.102 36.3935C122.102 37.2817 122.221 38.0739 122.46 38.7699C122.705 39.4659 123.066 40.0161 123.544 40.4205C124.028 40.8182 124.624 41.017 125.333 41.017ZM145.379 37.4972V28.7273H149.615V44H145.548V41.2259H145.389C145.044 42.1207 144.471 42.84 143.669 43.3835C142.873 43.9271 141.902 44.1989 140.755 44.1989C139.734 44.1989 138.836 43.9669 138.061 43.5028C137.285 43.0388 136.679 42.3793 136.241 41.5241C135.81 40.669 135.592 39.6449 135.585 38.4517V28.7273H139.821V37.696C139.827 38.5975 140.069 39.3101 140.547 39.8338C141.024 40.3575 141.663 40.6193 142.466 40.6193C142.976 40.6193 143.453 40.5033 143.897 40.2713C144.342 40.0327 144.699 39.6813 144.971 39.2173C145.25 38.7533 145.386 38.1799 145.379 37.4972ZM153.003 44V28.7273H157.109V31.392H157.268C157.547 30.4441 158.014 29.7282 158.67 29.2443C159.327 28.7538 160.082 28.5085 160.938 28.5085C161.15 28.5085 161.378 28.5218 161.624 28.5483C161.869 28.5748 162.084 28.6113 162.27 28.6577V32.4162C162.071 32.3565 161.796 32.3035 161.445 32.2571C161.093 32.2107 160.772 32.1875 160.48 32.1875C159.857 32.1875 159.3 32.3234 158.81 32.5952C158.326 32.8603 157.941 33.2315 157.656 33.7088C157.378 34.1861 157.239 34.7363 157.239 35.3594V44H153.003ZM174.53 44H169.916L176.946 23.6364H182.494L189.514 44H184.901L179.8 28.2898H179.641L174.53 44ZM174.241 35.9957H185.139V39.3565H174.241V35.9957ZM196.803 44.2486C195.643 44.2486 194.592 43.9503 193.651 43.3537C192.716 42.7505 191.973 41.8655 191.423 40.6989C190.88 39.5256 190.608 38.0871 190.608 36.3835C190.608 34.6335 190.89 33.1785 191.453 32.0185C192.017 30.8518 192.766 29.9801 193.7 29.4034C194.642 28.8201 195.672 28.5284 196.793 28.5284C197.648 28.5284 198.36 28.6742 198.93 28.9659C199.507 29.2509 199.971 29.6089 200.322 30.0398C200.68 30.464 200.952 30.8816 201.138 31.2926H201.267V23.6364H205.493V44H201.317V41.554H201.138C200.939 41.9782 200.657 42.3991 200.293 42.8168C199.935 43.2277 199.467 43.5691 198.891 43.8409C198.321 44.1127 197.625 44.2486 196.803 44.2486ZM198.145 40.8778C198.828 40.8778 199.404 40.6922 199.875 40.321C200.352 39.9432 200.717 39.4162 200.969 38.7401C201.227 38.0639 201.357 37.2718 201.357 36.3636C201.357 35.4555 201.231 34.6667 200.979 33.9972C200.727 33.3277 200.362 32.8106 199.885 32.446C199.408 32.0814 198.828 31.8991 198.145 31.8991C197.449 31.8991 196.862 32.0881 196.385 32.4659C195.908 32.8437 195.546 33.3674 195.301 34.0369C195.056 34.7064 194.933 35.482 194.933 36.3636C194.933 37.2519 195.056 38.0374 195.301 38.7202C195.553 39.3963 195.914 39.9266 196.385 40.3111C196.862 40.6889 197.449 40.8778 198.145 40.8778ZM223.214 28.7273L217.875 44H213.102L207.762 28.7273H212.237L215.409 39.6548H215.568L218.73 28.7273H223.214ZM231.85 44.2983C230.279 44.2983 228.926 43.9801 227.793 43.3438C226.666 42.7008 225.798 41.7926 225.188 40.6193C224.578 39.4394 224.273 38.044 224.273 36.4332C224.273 34.8622 224.578 33.4834 225.188 32.2969C225.798 31.1103 226.656 30.1856 227.763 29.5227C228.877 28.8598 230.183 28.5284 231.681 28.5284C232.688 28.5284 233.626 28.6908 234.495 29.0156C235.37 29.3338 236.132 29.8144 236.782 30.4574C237.438 31.1004 237.948 31.9091 238.313 32.8835C238.677 33.8513 238.86 34.9848 238.86 36.2841V37.4474H225.963V34.8224H234.873C234.873 34.2126 234.74 33.6723 234.475 33.2017C234.21 32.7311 233.842 32.3632 233.371 32.098C232.907 31.8262 232.367 31.6903 231.75 31.6903C231.107 31.6903 230.537 31.8395 230.04 32.1378C229.55 32.4295 229.165 32.8239 228.887 33.321C228.608 33.8116 228.466 34.3584 228.459 34.9616V37.4574C228.459 38.2131 228.598 38.866 228.877 39.4162C229.162 39.9664 229.563 40.3906 230.08 40.6889C230.597 40.9872 231.21 41.1364 231.919 41.1364C232.39 41.1364 232.821 41.0701 233.212 40.9375C233.603 40.8049 233.938 40.6061 234.216 40.3409C234.495 40.0758 234.707 39.7509 234.853 39.3665L238.77 39.625C238.571 40.5663 238.164 41.3883 237.547 42.0909C236.937 42.7869 236.149 43.3305 235.181 43.7216C234.22 44.1061 233.109 44.2983 231.85 44.2983ZM245.86 35.1705V44H241.624V28.7273H245.661V31.4219H245.84C246.178 30.5336 246.745 29.831 247.54 29.3139C248.336 28.7902 249.3 28.5284 250.434 28.5284C251.494 28.5284 252.419 28.7604 253.208 29.2244C253.997 29.6884 254.61 30.3513 255.047 31.2131C255.485 32.0682 255.703 33.089 255.703 34.2756V44H251.468V35.0312C251.474 34.0966 251.236 33.3674 250.752 32.8438C250.268 32.3134 249.602 32.0483 248.753 32.0483C248.183 32.0483 247.679 32.1709 247.242 32.4162C246.811 32.6615 246.473 33.0194 246.228 33.4901C245.989 33.9541 245.866 34.5142 245.86 35.1705ZM267.165 28.7273V31.9091H257.968V28.7273H267.165ZM260.056 25.0682H264.292V39.3068C264.292 39.6979 264.352 40.0028 264.471 40.2216C264.59 40.4337 264.756 40.5829 264.968 40.669C265.187 40.7552 265.439 40.7983 265.724 40.7983C265.923 40.7983 266.121 40.7817 266.32 40.7486C266.519 40.7088 266.672 40.679 266.778 40.6591L267.444 43.8111C267.232 43.8774 266.933 43.9536 266.549 44.0398C266.165 44.1326 265.697 44.1889 265.147 44.2088C264.126 44.2486 263.231 44.1127 262.462 43.8011C261.7 43.4896 261.107 43.0057 260.683 42.3494C260.258 41.6932 260.049 40.8646 260.056 39.8636V25.0682ZM279.719 37.4972V28.7273H283.955V44H279.888V41.2259H279.729C279.384 42.1207 278.811 42.84 278.009 43.3835C277.213 43.9271 276.242 44.1989 275.095 44.1989C274.074 44.1989 273.176 43.9669 272.401 43.5028C271.625 43.0388 271.018 42.3793 270.581 41.5241C270.15 40.669 269.931 39.6449 269.925 38.4517V28.7273H274.161V37.696C274.167 38.5975 274.409 39.3101 274.886 39.8338C275.364 40.3575 276.003 40.6193 276.805 40.6193C277.316 40.6193 277.793 40.5033 278.237 40.2713C278.681 40.0327 279.039 39.6813 279.311 39.2173C279.589 38.7533 279.725 38.1799 279.719 37.4972ZM287.343 44V28.7273H291.449V31.392H291.608C291.887 30.4441 292.354 29.7282 293.01 29.2443C293.667 28.7538 294.422 28.5085 295.277 28.5085C295.489 28.5085 295.718 28.5218 295.963 28.5483C296.209 28.5748 296.424 28.6113 296.61 28.6577V32.4162C296.411 32.3565 296.136 32.3035 295.784 32.2571C295.433 32.2107 295.112 32.1875 294.82 32.1875C294.197 32.1875 293.64 32.3234 293.15 32.5952C292.666 32.8603 292.281 33.2315 291.996 33.7088C291.718 34.1861 291.578 34.7363 291.578 35.3594V44H287.343ZM305.049 44.2983C303.478 44.2983 302.126 43.9801 300.992 43.3438C299.865 42.7008 298.997 41.7926 298.387 40.6193C297.777 39.4394 297.472 38.044 297.472 36.4332C297.472 34.8622 297.777 33.4834 298.387 32.2969C298.997 31.1103 299.855 30.1856 300.962 29.5227C302.076 28.8598 303.382 28.5284 304.88 28.5284C305.888 28.5284 306.826 28.6908 307.694 29.0156C308.569 29.3338 309.331 29.8144 309.981 30.4574C310.637 31.1004 311.147 31.9091 311.512 32.8835C311.877 33.8513 312.059 34.9848 312.059 36.2841V37.4474H299.163V34.8224H308.072C308.072 34.2126 307.939 33.6723 307.674 33.2017C307.409 32.7311 307.041 32.3632 306.57 32.098C306.106 31.8262 305.566 31.6903 304.95 31.6903C304.307 31.6903 303.737 31.8395 303.239 32.1378C302.749 32.4295 302.364 32.8239 302.086 33.321C301.808 33.8116 301.665 34.3584 301.658 34.9616V37.4574C301.658 38.2131 301.798 38.866 302.076 39.4162C302.361 39.9664 302.762 40.3906 303.279 40.6889C303.796 40.9872 304.409 41.1364 305.119 41.1364C305.589 41.1364 306.02 41.0701 306.411 40.9375C306.802 40.8049 307.137 40.6061 307.415 40.3409C307.694 40.0758 307.906 39.7509 308.052 39.3665L311.969 39.625C311.771 40.5663 311.363 41.3883 310.746 42.0909C310.137 42.7869 309.348 43.3305 308.38 43.7216C307.419 44.1061 306.308 44.2983 305.049 44.2983Z" fill="black"/>
</svg>
