<svg width="136" height="50" viewBox="0 0 136 50" fill="none" xmlns="http://www.w3.org/2000/svg">
<rect width="136" height="50" rx="10" fill="#1331A0"/>
<path d="M20.2642 32V17.4545H26.0881C27.1581 17.4545 28.0507 17.6132 28.7656 17.9304C29.4806 18.2476 30.018 18.688 30.3778 19.2514C30.7377 19.8101 30.9176 20.4541 30.9176 21.1832C30.9176 21.7514 30.804 22.2509 30.5767 22.6818C30.3494 23.108 30.0369 23.4583 29.6392 23.733C29.2462 24.0028 28.7964 24.1946 28.2898 24.3082V24.4503C28.8438 24.474 29.3622 24.6302 29.8452 24.919C30.3329 25.2079 30.7282 25.6127 31.0312 26.1335C31.3343 26.6496 31.4858 27.2652 31.4858 27.9801C31.4858 28.7519 31.294 29.4408 30.9105 30.0469C30.5317 30.6482 29.9706 31.1241 29.2273 31.4744C28.4839 31.8248 27.5677 32 26.4787 32H20.2642ZM23.3395 29.4858H25.8466C26.7036 29.4858 27.3286 29.3224 27.7216 28.9957C28.1146 28.6643 28.3111 28.224 28.3111 27.6747C28.3111 27.2723 28.214 26.9171 28.0199 26.6094C27.8258 26.3016 27.5488 26.0601 27.1889 25.8849C26.8338 25.7098 26.41 25.6222 25.9176 25.6222H23.3395V29.4858ZM23.3395 23.5412H25.6193C26.0407 23.5412 26.4148 23.4678 26.7415 23.321C27.0729 23.1695 27.3333 22.9564 27.5227 22.6818C27.7169 22.4072 27.8139 22.0781 27.8139 21.6946C27.8139 21.169 27.6269 20.7453 27.2528 20.4233C26.8835 20.1013 26.358 19.9403 25.6761 19.9403H23.3395V23.5412ZM38.359 32.2131C37.2558 32.2131 36.3017 31.9787 35.4968 31.5099C34.6966 31.0365 34.0787 30.3783 33.6431 29.5355C33.2075 28.688 32.9897 27.7055 32.9897 26.5881C32.9897 25.4612 33.2075 24.4763 33.6431 23.6335C34.0787 22.786 34.6966 22.1278 35.4968 21.6591C36.3017 21.1856 37.2558 20.9489 38.359 20.9489C39.4622 20.9489 40.4139 21.1856 41.2141 21.6591C42.0191 22.1278 42.6393 22.786 43.0749 23.6335C43.5105 24.4763 43.7283 25.4612 43.7283 26.5881C43.7283 27.7055 43.5105 28.688 43.0749 29.5355C42.6393 30.3783 42.0191 31.0365 41.2141 31.5099C40.4139 31.9787 39.4622 32.2131 38.359 32.2131ZM38.3732 29.8693C38.8751 29.8693 39.2942 29.7273 39.6303 29.4432C39.9665 29.1544 40.2198 28.7614 40.3903 28.2642C40.5655 27.767 40.6531 27.2012 40.6531 26.5668C40.6531 25.9323 40.5655 25.3665 40.3903 24.8693C40.2198 24.3722 39.9665 23.9792 39.6303 23.6903C39.2942 23.4015 38.8751 23.2571 38.3732 23.2571C37.8666 23.2571 37.4405 23.4015 37.0948 23.6903C36.7539 23.9792 36.4959 24.3722 36.3207 24.8693C36.1502 25.3665 36.065 25.9323 36.065 26.5668C36.065 27.2012 36.1502 27.767 36.3207 28.2642C36.4959 28.7614 36.7539 29.1544 37.0948 29.4432C37.4405 29.7273 37.8666 29.8693 38.3732 29.8693ZM50.6246 32.2131C49.5214 32.2131 48.5674 31.9787 47.7624 31.5099C46.9622 31.0365 46.3443 30.3783 45.9087 29.5355C45.4731 28.688 45.2553 27.7055 45.2553 26.5881C45.2553 25.4612 45.4731 24.4763 45.9087 23.6335C46.3443 22.786 46.9622 22.1278 47.7624 21.6591C48.5674 21.1856 49.5214 20.9489 50.6246 20.9489C51.7279 20.9489 52.6796 21.1856 53.4798 21.6591C54.2847 22.1278 54.9049 22.786 55.3406 23.6335C55.7762 24.4763 55.994 25.4612 55.994 26.5881C55.994 27.7055 55.7762 28.688 55.3406 29.5355C54.9049 30.3783 54.2847 31.0365 53.4798 31.5099C52.6796 31.9787 51.7279 32.2131 50.6246 32.2131ZM50.6388 29.8693C51.1407 29.8693 51.5598 29.7273 51.896 29.4432C52.2321 29.1544 52.4854 28.7614 52.6559 28.2642C52.8311 27.767 52.9187 27.2012 52.9187 26.5668C52.9187 25.9323 52.8311 25.3665 52.6559 24.8693C52.4854 24.3722 52.2321 23.9792 51.896 23.6903C51.5598 23.4015 51.1407 23.2571 50.6388 23.2571C50.1322 23.2571 49.7061 23.4015 49.3604 23.6903C49.0195 23.9792 48.7615 24.3722 48.5863 24.8693C48.4158 25.3665 48.3306 25.9323 48.3306 26.5668C48.3306 27.2012 48.4158 27.767 48.5863 28.2642C48.7615 28.7614 49.0195 29.1544 49.3604 29.4432C49.7061 29.7273 50.1322 29.8693 50.6388 29.8693ZM60.7028 28.8608L60.7099 25.2315H61.1502L64.6445 21.0909H68.1175L63.4229 26.5739H62.7056L60.7028 28.8608ZM57.9613 32V17.4545H60.9869V32H57.9613ZM64.7795 32L61.5692 27.2486L63.5863 25.1108L68.3235 32H64.7795ZM86.4538 17.4545V32H83.7976L77.4695 22.8452H77.3629V32H74.2876V17.4545H76.9865L83.2649 26.6023H83.3928V17.4545H86.4538ZM93.8668 32.2131C92.7636 32.2131 91.8095 31.9787 91.0046 31.5099C90.2044 31.0365 89.5865 30.3783 89.1509 29.5355C88.7153 28.688 88.4975 27.7055 88.4975 26.5881C88.4975 25.4612 88.7153 24.4763 89.1509 23.6335C89.5865 22.786 90.2044 22.1278 91.0046 21.6591C91.8095 21.1856 92.7636 20.9489 93.8668 20.9489C94.9701 20.9489 95.9218 21.1856 96.7219 21.6591C97.5269 22.1278 98.1471 22.786 98.5827 23.6335C99.0183 24.4763 99.2362 25.4612 99.2362 26.5881C99.2362 27.7055 99.0183 28.688 98.5827 29.5355C98.1471 30.3783 97.5269 31.0365 96.7219 31.5099C95.9218 31.9787 94.9701 32.2131 93.8668 32.2131ZM93.881 29.8693C94.3829 29.8693 94.802 29.7273 95.1381 29.4432C95.4743 29.1544 95.7276 28.7614 95.8981 28.2642C96.0733 27.767 96.1609 27.2012 96.1609 26.5668C96.1609 25.9323 96.0733 25.3665 95.8981 24.8693C95.7276 24.3722 95.4743 23.9792 95.1381 23.6903C94.802 23.4015 94.3829 23.2571 93.881 23.2571C93.3744 23.2571 92.9483 23.4015 92.6026 23.6903C92.2617 23.9792 92.0037 24.3722 91.8285 24.8693C91.658 25.3665 91.5728 25.9323 91.5728 26.5668C91.5728 27.2012 91.658 27.767 91.8285 28.2642C92.0037 28.7614 92.2617 29.1544 92.6026 29.4432C92.9483 29.7273 93.3744 29.8693 93.881 29.8693ZM103.082 32L100.113 21.0909H103.174L104.865 28.4205H104.964L106.725 21.0909H109.73L111.52 28.3778H111.612L113.274 21.0909H116.328L113.366 32H110.163L108.288 25.1392H108.153L106.278 32H103.082Z" fill="white"/>
</svg>
