<svg width="44" height="36" viewBox="0 0 44 36" fill="none" xmlns="http://www.w3.org/2000/svg">
<path d="M39.3333 9.33317L22 20.1665L4.66668 9.33317V4.99984L22 15.8332L39.3333 4.99984M39.3333 0.666504H4.66668C2.26168 0.666504 0.333344 2.59484 0.333344 4.99984V30.9998C0.333344 32.1491 0.78989 33.2513 1.60255 34.064C2.4152 34.8766 3.51741 35.3332 4.66668 35.3332H39.3333C40.4826 35.3332 41.5848 34.8766 42.3975 34.064C43.2101 33.2513 43.6667 32.1491 43.6667 30.9998V4.99984C43.6667 3.85057 43.2101 2.74837 42.3975 1.93571C41.5848 1.12305 40.4826 0.666504 39.3333 0.666504Z" fill="black"/>
</svg>
